<svg width="30" height="30" viewBox="0 0 30 30" fill="none" xmlns="http://www.w3.org/2000/svg">
<path d="M15 0C6.72905 0 0 6.72906 0 15C0 23.2709 6.72905 30 15 30C23.271 30 30 23.2709 30 15C30 6.72906 23.271 0 15 0ZM15 2.25C22.055 2.25 27.75 7.94504 27.75 15C27.75 20.749 23.9677 25.5919 18.75 27.189V23.3525C18.75 21.92 17.9245 20.6915 16.7314 20.0801C17.8915 19.8581 18.9686 19.4181 19.8735 18.7964C20.7783 18.1747 21.4848 17.3894 21.9342 16.5055C22.3837 15.6217 22.5631 14.6648 22.4577 13.7144C22.3523 12.7639 21.9651 11.8473 21.3281 11.0405C21.6608 10.0166 22.0324 8.2205 21.1494 6.80713C19.447 6.80713 18.3485 7.97406 17.8242 8.69971C16.928 8.40527 15.9689 8.25256 15 8.25C14.0305 8.25086 13.0704 8.40209 12.1729 8.69531C11.6473 7.96933 10.5497 6.80713 8.85059 6.80713C7.83728 8.42911 8.46369 10.1734 8.79932 10.8853C8.11932 11.6885 7.69294 12.6117 7.55671 13.5757C7.42049 14.5397 7.57849 15.5158 8.01717 16.4202C8.45585 17.3246 9.16213 18.1305 10.0755 18.7687C10.9888 19.4069 12.082 19.8584 13.2612 20.0845C12.2816 20.5894 11.548 21.5055 11.3232 22.6172H10.3374C9.36465 22.6172 8.98669 22.2219 8.46094 21.5552C7.94194 20.8884 7.38388 20.4404 6.71338 20.2544C6.35188 20.2161 6.10834 20.4911 6.42334 20.7349C7.48759 21.4594 7.56104 22.6451 7.98779 23.4214C8.37629 24.1204 9.17226 24.75 10.0723 24.75H11.25V27.189C6.0323 25.5919 2.25 20.749 2.25 15C2.25 7.94504 7.94504 2.25 15 2.25Z" fill="white"/>
</svg>
