<svg width="30" height="30" viewBox="0 0 30 30" fill="none" xmlns="http://www.w3.org/2000/svg">
<path d="M9.07895 0C4.07873 0 0 4.07873 0 9.07895V20.9211C0 25.9206 4.07859 30 9.07895 30H20.9211C25.9207 30 30 25.9207 30 20.9211V9.07895C30 4.07859 25.9206 0 20.9211 0H9.07895ZM9.07895 2.36842H20.9211C24.6405 2.36842 27.6316 5.35878 27.6316 9.07895V20.9211C27.6316 24.6403 24.6403 27.6316 20.9211 27.6316H9.07895C5.35878 27.6316 2.36842 24.6405 2.36842 20.9211V9.07895C2.36842 5.35864 5.35864 2.36842 9.07895 2.36842ZM22.8947 5.52632C22.0224 5.52632 21.3158 6.23289 21.3158 7.10526C21.3158 7.97763 22.0224 8.68421 22.8947 8.68421C23.7671 8.68421 24.4737 7.97763 24.4737 7.10526C24.4737 6.23289 23.7671 5.52632 22.8947 5.52632ZM15 7.10526C10.6541 7.10526 7.10526 10.6541 7.10526 15C7.10526 19.3459 10.6541 22.8947 15 22.8947C19.3459 22.8947 22.8947 19.3459 22.8947 15C22.8947 10.6541 19.3459 7.10526 15 7.10526ZM15 9.47368C18.0657 9.47368 20.5263 11.9343 20.5263 15C20.5263 18.0657 18.0657 20.5263 15 20.5263C11.9343 20.5263 9.47368 18.0657 9.47368 15C9.47368 11.9343 11.9343 9.47368 15 9.47368Z" fill="white"/>
</svg>
