<svg width="30" height="26" viewBox="0 0 30 26" fill="none" xmlns="http://www.w3.org/2000/svg">
<g filter="url(#filter0_d_1_15)">
<path d="M31.999 3.98705C30.8948 4.59048 29.7087 4.99656 28.4638 5.17972C29.7352 4.24262 30.7102 2.75888 31.1694 0.989746C29.981 1.85727 28.6634 2.48769 27.2603 2.82845C26.1377 1.35607 24.5385 0.436005 22.7686 0.436005C19.3695 0.436005 16.6142 3.82803 16.6142 8.00948C16.6142 8.60298 16.6696 9.18228 16.7734 9.7346C11.6586 9.41939 7.12419 6.40363 4.08738 1.82036C3.55894 2.9392 3.25549 4.23978 3.25549 5.62981C3.25549 8.25654 4.34122 10.5751 5.99231 11.9325C4.98389 11.8928 4.03431 11.552 3.20472 10.9855C3.20472 11.0181 3.20472 11.048 3.20472 11.0806C3.20472 14.7509 5.32541 17.8121 8.14184 18.5064C7.62609 18.6796 7.0815 18.7719 6.5196 18.7719C6.12384 18.7719 5.73732 18.7237 5.36233 18.6371C6.14576 21.6457 8.41875 23.8365 11.1117 23.8976C9.00604 25.9294 6.35229 27.1405 3.46779 27.1405C2.97166 27.1405 2.48129 27.105 1.999 27.034C4.72313 29.1823 7.95723 30.436 11.4336 30.436C22.7547 30.436 28.9437 18.8955 28.9437 8.88695C28.9437 8.55896 28.938 8.2324 28.9264 7.90725C30.1298 6.83811 31.174 5.50487 31.999 3.98705Z" fill="#FFF9F9"/>
</g>
<defs>
<filter id="filter0_d_1_15" x="-2.001" y="0.436005" width="38" height="38" filterUnits="userSpaceOnUse" color-interpolation-filters="sRGB">
<feFlood flood-opacity="0" result="BackgroundImageFix"/>
<feColorMatrix in="SourceAlpha" type="matrix" values="0 0 0 0 0 0 0 0 0 0 0 0 0 0 0 0 0 0 127 0" result="hardAlpha"/>
<feOffset dy="4"/>
<feGaussianBlur stdDeviation="2"/>
<feComposite in2="hardAlpha" operator="out"/>
<feColorMatrix type="matrix" values="0 0 0 0 0 0 0 0 0 0 0 0 0 0 0 0 0 0 0.25 0"/>
<feBlend mode="normal" in2="BackgroundImageFix" result="effect1_dropShadow_1_15"/>
<feBlend mode="normal" in="SourceGraphic" in2="effect1_dropShadow_1_15" result="shape"/>
</filter>
</defs>
</svg>
